<svg preserveAspectRatio="none" overflow="visible" style="display: block;" width="9.63" height="11" viewBox="0 0 9.63 11" fill="none" xmlns="http://www.w3.org/2000/svg">
<g id="Img">
<path id="Vector" d="M2.75143 0C3.03732 0 3.26732 0.229883 3.26732 0.515625V1.375H6.36268V0.515625C6.36268 0.229883 6.59268 0 6.87857 0C7.16446 0 7.39446 0.229883 7.39446 0.515625V1.375H8.25429C9.01308 1.375 9.63 1.9916 9.63 2.75V3.09375V4.125V9.625C9.63 10.3834 9.01308 11 8.25429 11H1.37571C0.616922 11 0 10.3834 0 9.625V4.125V3.09375V2.75C0 1.9916 0.616922 1.375 1.37571 1.375H2.23554V0.515625C2.23554 0.229883 2.46554 0 2.75143 0ZM8.59821 4.125H1.03179V9.625C1.03179 9.81406 1.18655 9.96875 1.37571 9.96875H8.25429C8.44345 9.96875 8.59821 9.81406 8.59821 9.625V4.125ZM7.07203 6.38086L4.66453 8.78711C4.46247 8.98906 4.13574 8.98906 3.93583 8.78711L2.56012 7.41211C2.35806 7.21016 2.35806 6.88359 2.56012 6.68379C2.76218 6.48398 3.08891 6.48184 3.28882 6.68379L4.29911 7.69355L6.34118 5.65254C6.54324 5.45059 6.86997 5.45059 7.06988 5.65254C7.26979 5.85449 7.27194 6.18105 7.06988 6.38086H7.07203Z" fill="#5C6B7A"/>
</g>
</svg>
