<svg preserveAspectRatio="none" overflow="visible" style="display: block;" width="9" height="12" viewBox="0 0 9 12" fill="none" xmlns="http://www.w3.org/2000/svg">
<g id="Img">
<path id="Vector" d="M4.5 0C3.52031 0 2.68594 0.625781 2.37891 1.5H1.5C0.672656 1.5 0 2.17266 0 3V10.5C0 11.3273 0.672656 12 1.5 12H7.5C8.32734 12 9 11.3273 9 10.5V3C9 2.17266 8.32734 1.5 7.5 1.5H6.62109C6.31406 0.625781 5.47969 0 4.5 0ZM4.5 1.5C4.69891 1.5 4.88968 1.57902 5.03033 1.71967C5.17098 1.86032 5.25 2.05109 5.25 2.25C5.25 2.44891 5.17098 2.63968 5.03033 2.78033C4.88968 2.92098 4.69891 3 4.5 3C4.30109 3 4.11032 2.92098 3.96967 2.78033C3.82902 2.63968 3.75 2.44891 3.75 2.25C3.75 2.05109 3.82902 1.86032 3.96967 1.71967C4.11032 1.57902 4.30109 1.5 4.5 1.5ZM1.6875 6.375C1.6875 6.22582 1.74676 6.08274 1.85225 5.97725C1.95774 5.87176 2.10082 5.8125 2.25 5.8125C2.39918 5.8125 2.54226 5.87176 2.64775 5.97725C2.75324 6.08274 2.8125 6.22582 2.8125 6.375C2.8125 6.52418 2.75324 6.66726 2.64775 6.77275C2.54226 6.87824 2.39918 6.9375 2.25 6.9375C2.10082 6.9375 1.95774 6.87824 1.85225 6.77275C1.74676 6.66726 1.6875 6.52418 1.6875 6.375ZM4.125 6H7.125C7.33125 6 7.5 6.16875 7.5 6.375C7.5 6.58125 7.33125 6.75 7.125 6.75H4.125C3.91875 6.75 3.75 6.58125 3.75 6.375C3.75 6.16875 3.91875 6 4.125 6ZM1.6875 8.625C1.6875 8.47582 1.74676 8.33274 1.85225 8.22725C1.95774 8.12176 2.10082 8.0625 2.25 8.0625C2.39918 8.0625 2.54226 8.12176 2.64775 8.22725C2.75324 8.33274 2.8125 8.47582 2.8125 8.625C2.8125 8.77418 2.75324 8.91726 2.64775 9.02275C2.54226 9.12824 2.39918 9.1875 2.25 9.1875C2.10082 9.1875 1.95774 9.12824 1.85225 9.02275C1.74676 8.91726 1.6875 8.77418 1.6875 8.625ZM3.75 8.625C3.75 8.41875 3.91875 8.25 4.125 8.25H7.125C7.33125 8.25 7.5 8.41875 7.5 8.625C7.5 8.83125 7.33125 9 7.125 9H4.125C3.91875 9 3.75 8.83125 3.75 8.625Z" fill="#09386B"/>
</g>
</svg>
